<svg width="293" height="72" viewBox="0 0 293 72" fill="none" xmlns="http://www.w3.org/2000/svg">
<circle cx="25.5" cy="10" r="4" fill="#B7CC33"/>
<path d="M44.2407 25.0376C40.5477 20.5862 35.4255 17.553 29.7468 16.4548C24.0682 15.3566 18.1844 16.2614 13.098 19.0149C8.01166 21.7685 4.03742 26.2006 1.85247 31.5559C-0.332482 36.9112 -0.592961 42.8584 1.11542 48.3842C2.82379 53.91 6.39532 58.6726 11.2215 61.8603C16.0476 65.048 21.8297 66.4638 27.5827 65.8662C33.3356 65.2687 38.7034 62.6949 42.7714 58.5834C46.8394 54.4719 50 48.25 50 43.25L42.0708 42.5897C41.703 46.5392 39.9772 50.2389 37.1874 53.0585C34.3976 55.8781 30.7165 57.6432 26.7712 58.0529C22.8259 58.4627 18.8606 57.4918 15.5509 55.3057C12.2412 53.1196 9.79185 49.8535 8.62027 46.064C7.44869 42.2745 7.62732 38.1959 9.12573 34.5233C10.6241 30.8507 13.3496 27.8113 16.8378 25.9229C20.3259 24.0346 24.361 23.4141 28.2553 24.1672C32.1497 24.9204 35.6624 27.0005 38.195 30.0532L44.2407 25.0376Z" fill="#B7CC33"/>
<path d="M11.25 30.75L6 24.75C11.25 18.25 18.5 16 25 16C31.75 16 39 18.7501 44.5 25.0001L38.25 30.25C35.25 26.5 31.4604 24.9335 28.5 24.25V57.7848C28.4987 57.8061 27.4405 57.9769 26.75 58.0501C26.0595 58.1232 25.6744 58.1501 25 58.1501C24.3256 58.1501 22.8465 58.0537 21.5 57.7848V24.25C18.7902 24.9645 15 26.5 11.25 30.75Z" fill="#407368"/>
<path d="M50 37.5V45H28.5V37.5H50Z" fill="#B7CC33"/>
<path d="M76.5947 21.492H71.5067V36H67.8947V21.492H62.8067V18.588H76.5947V21.492ZM83.4591 21.408V25.884H89.2671V28.608H83.4591V33.18H90.9231V36H79.8351V18.588H90.9231V21.408H83.4591ZM106.201 31.716C106.401 31.716 106.569 31.788 106.705 31.932L108.133 33.456C107.429 34.352 106.553 35.032 105.505 35.496C104.465 35.96 103.225 36.192 101.785 36.192C100.481 36.192 99.3088 35.972 98.2688 35.532C97.2288 35.084 96.3448 34.464 95.6168 33.672C94.8888 32.88 94.3288 31.94 93.9368 30.852C93.5448 29.764 93.3488 28.576 93.3488 27.288C93.3488 26.424 93.4408 25.604 93.6248 24.828C93.8168 24.044 94.0928 23.324 94.4528 22.668C94.8128 22.012 95.2448 21.42 95.7488 20.892C96.2608 20.364 96.8368 19.916 97.4768 19.548C98.1168 19.172 98.8128 18.888 99.5648 18.696C100.325 18.496 101.133 18.396 101.989 18.396C102.629 18.396 103.233 18.452 103.801 18.564C104.377 18.676 104.913 18.832 105.409 19.032C105.905 19.232 106.361 19.476 106.777 19.764C107.201 20.044 107.581 20.352 107.917 20.688L106.705 22.344C106.633 22.448 106.541 22.54 106.429 22.62C106.317 22.7 106.165 22.74 105.973 22.74C105.781 22.74 105.585 22.672 105.385 22.536C105.193 22.4 104.953 22.248 104.665 22.08C104.385 21.912 104.029 21.76 103.597 21.624C103.173 21.488 102.633 21.42 101.977 21.42C101.249 21.42 100.581 21.552 99.9728 21.816C99.3648 22.08 98.8408 22.464 98.4008 22.968C97.9688 23.464 97.6328 24.076 97.3928 24.804C97.1528 25.532 97.0328 26.36 97.0328 27.288C97.0328 28.224 97.1608 29.06 97.4168 29.796C97.6808 30.524 98.0368 31.14 98.4848 31.644C98.9408 32.148 99.4688 32.532 100.069 32.796C100.677 33.052 101.325 33.18 102.013 33.18C102.421 33.18 102.789 33.16 103.117 33.12C103.453 33.08 103.761 33.012 104.041 32.916C104.329 32.82 104.597 32.696 104.845 32.544C105.101 32.392 105.357 32.2 105.613 31.968C105.701 31.896 105.793 31.836 105.889 31.788C105.985 31.74 106.089 31.716 106.201 31.716ZM126.161 18.588V36H122.537V28.5H114.869V36H111.245V18.588H114.869V25.98H122.537V18.588H126.161ZM145.804 18.588V36H143.944C143.664 36 143.428 35.956 143.236 35.868C143.044 35.772 142.856 35.612 142.672 35.388L133.996 24.348C134.02 24.628 134.036 24.904 134.044 25.176C134.06 25.448 134.068 25.7 134.068 25.932V36H130.888V18.588H132.784C132.936 18.588 133.064 18.596 133.168 18.612C133.28 18.62 133.38 18.648 133.468 18.696C133.556 18.736 133.64 18.792 133.72 18.864C133.8 18.936 133.888 19.032 133.984 19.152L142.72 30.24C142.688 29.936 142.664 29.644 142.648 29.364C142.632 29.076 142.624 28.804 142.624 28.548V18.588H145.804ZM167.354 27.288C167.354 28.56 167.138 29.74 166.706 30.828C166.282 31.916 165.678 32.856 164.894 33.648C164.118 34.44 163.182 35.064 162.086 35.52C160.99 35.968 159.774 36.192 158.438 36.192C157.102 36.192 155.886 35.968 154.79 35.52C153.694 35.064 152.754 34.44 151.97 33.648C151.186 32.856 150.578 31.916 150.146 30.828C149.722 29.74 149.51 28.56 149.51 27.288C149.51 26.016 149.722 24.84 150.146 23.76C150.578 22.672 151.186 21.732 151.97 20.94C152.754 20.148 153.694 19.528 154.79 19.08C155.886 18.624 157.102 18.396 158.438 18.396C159.774 18.396 160.99 18.624 162.086 19.08C163.182 19.528 164.118 20.152 164.894 20.952C165.678 21.744 166.282 22.684 166.706 23.772C167.138 24.852 167.354 26.024 167.354 27.288ZM163.67 27.288C163.67 26.376 163.55 25.56 163.31 24.84C163.07 24.112 162.722 23.496 162.266 22.992C161.818 22.48 161.27 22.092 160.622 21.828C159.982 21.556 159.254 21.42 158.438 21.42C157.622 21.42 156.89 21.556 156.242 21.828C155.594 22.092 155.042 22.48 154.586 22.992C154.138 23.496 153.794 24.112 153.554 24.84C153.314 25.56 153.194 26.376 153.194 27.288C153.194 28.208 153.314 29.032 153.554 29.76C153.794 30.48 154.138 31.092 154.586 31.596C155.042 32.1 155.594 32.488 156.242 32.76C156.89 33.024 157.622 33.156 158.438 33.156C159.254 33.156 159.982 33.024 160.622 32.76C161.27 32.488 161.818 32.1 162.266 31.596C162.722 31.092 163.07 30.48 163.31 29.76C163.55 29.032 163.67 28.208 163.67 27.288ZM186.311 27.132H192.287V34.32C191.399 34.968 190.451 35.444 189.443 35.748C188.443 36.044 187.383 36.192 186.263 36.192C184.831 36.192 183.535 35.972 182.375 35.532C181.215 35.084 180.223 34.464 179.399 33.672C178.575 32.88 177.939 31.94 177.491 30.852C177.043 29.764 176.819 28.576 176.819 27.288C176.819 25.984 177.031 24.788 177.455 23.7C177.887 22.612 178.499 21.676 179.291 20.892C180.083 20.108 181.039 19.496 182.159 19.056C183.287 18.616 184.547 18.396 185.939 18.396C186.659 18.396 187.331 18.456 187.955 18.576C188.579 18.688 189.155 18.848 189.683 19.056C190.211 19.256 190.695 19.496 191.135 19.776C191.575 20.056 191.975 20.364 192.335 20.7L191.291 22.308C191.131 22.564 190.923 22.72 190.667 22.776C190.411 22.832 190.131 22.768 189.827 22.584C189.539 22.408 189.255 22.252 188.975 22.116C188.703 21.972 188.411 21.848 188.099 21.744C187.787 21.64 187.447 21.56 187.079 21.504C186.711 21.448 186.287 21.42 185.807 21.42C184.999 21.42 184.267 21.56 183.611 21.84C182.955 22.12 182.395 22.516 181.931 23.028C181.475 23.54 181.123 24.156 180.875 24.876C180.627 25.596 180.503 26.4 180.503 27.288C180.503 28.248 180.639 29.108 180.911 29.868C181.183 30.62 181.567 31.256 182.063 31.776C182.559 32.296 183.151 32.692 183.839 32.964C184.535 33.236 185.307 33.372 186.155 33.372C186.731 33.372 187.243 33.316 187.691 33.204C188.147 33.084 188.591 32.924 189.023 32.724V29.796H187.055C186.823 29.796 186.639 29.736 186.503 29.616C186.375 29.488 186.311 29.328 186.311 29.136V27.132ZM206.641 33.072V36H196.309V18.588H199.909V33.072H206.641ZM219.12 29.388L217.236 24.06C217.124 23.78 217.004 23.452 216.876 23.076C216.756 22.7 216.64 22.292 216.528 21.852C216.416 22.3 216.296 22.716 216.168 23.1C216.048 23.476 215.932 23.804 215.82 24.084L213.948 29.388H219.12ZM225.168 36H222.372C222.06 36 221.804 35.928 221.604 35.784C221.412 35.632 221.268 35.44 221.172 35.208L219.996 31.884H213.06L211.884 35.208C211.804 35.408 211.664 35.592 211.464 35.76C211.264 35.92 211.012 36 210.708 36H207.888L214.692 18.588H218.376L225.168 36ZM237.292 21.924C237.18 22.108 237.064 22.244 236.944 22.332C236.832 22.412 236.684 22.452 236.5 22.452C236.324 22.452 236.132 22.392 235.924 22.272C235.724 22.144 235.488 22.008 235.216 21.864C234.944 21.72 234.632 21.588 234.28 21.468C233.928 21.34 233.516 21.276 233.044 21.276C232.212 21.276 231.588 21.464 231.172 21.84C230.756 22.208 230.548 22.692 230.548 23.292C230.548 23.676 230.66 23.996 230.884 24.252C231.116 24.5 231.416 24.716 231.784 24.9C232.16 25.084 232.584 25.248 233.056 25.392C233.528 25.536 234.012 25.696 234.508 25.872C235.004 26.04 235.488 26.24 235.96 26.472C236.432 26.704 236.852 26.996 237.22 27.348C237.596 27.7 237.896 28.132 238.12 28.644C238.352 29.148 238.468 29.764 238.468 30.492C238.468 31.284 238.328 32.028 238.048 32.724C237.776 33.412 237.38 34.016 236.86 34.536C236.34 35.048 235.696 35.452 234.928 35.748C234.168 36.044 233.304 36.192 232.336 36.192C231.784 36.192 231.232 36.136 230.68 36.024C230.136 35.912 229.608 35.756 229.096 35.556C228.592 35.356 228.116 35.116 227.668 34.836C227.22 34.556 226.828 34.244 226.492 33.9L227.548 32.196C227.636 32.068 227.752 31.964 227.896 31.884C228.04 31.796 228.192 31.752 228.352 31.752C228.568 31.752 228.796 31.832 229.036 31.992C229.276 32.152 229.552 32.328 229.864 32.52C230.176 32.712 230.536 32.888 230.944 33.048C231.36 33.208 231.856 33.288 232.432 33.288C233.272 33.288 233.92 33.096 234.376 32.712C234.84 32.328 235.072 31.756 235.072 30.996C235.072 30.556 234.956 30.2 234.724 29.928C234.5 29.656 234.204 29.428 233.836 29.244C233.468 29.06 233.048 28.904 232.576 28.776C232.104 28.64 231.62 28.492 231.124 28.332C230.628 28.172 230.144 27.98 229.672 27.756C229.2 27.532 228.78 27.236 228.412 26.868C228.044 26.5 227.744 26.044 227.512 25.5C227.288 24.956 227.176 24.28 227.176 23.472C227.176 22.824 227.304 22.196 227.56 21.588C227.816 20.98 228.192 20.44 228.688 19.968C229.184 19.496 229.792 19.116 230.512 18.828C231.24 18.54 232.072 18.396 233.008 18.396C234.056 18.396 235.024 18.56 235.912 18.888C236.808 19.208 237.564 19.656 238.18 20.232L237.292 21.924ZM251.591 21.924C251.479 22.108 251.363 22.244 251.243 22.332C251.131 22.412 250.983 22.452 250.799 22.452C250.623 22.452 250.431 22.392 250.223 22.272C250.023 22.144 249.787 22.008 249.515 21.864C249.243 21.72 248.931 21.588 248.579 21.468C248.227 21.34 247.815 21.276 247.343 21.276C246.511 21.276 245.887 21.464 245.471 21.84C245.055 22.208 244.847 22.692 244.847 23.292C244.847 23.676 244.959 23.996 245.183 24.252C245.415 24.5 245.715 24.716 246.083 24.9C246.459 25.084 246.883 25.248 247.355 25.392C247.827 25.536 248.311 25.696 248.807 25.872C249.303 26.04 249.787 26.24 250.259 26.472C250.731 26.704 251.151 26.996 251.519 27.348C251.895 27.7 252.195 28.132 252.419 28.644C252.651 29.148 252.767 29.764 252.767 30.492C252.767 31.284 252.627 32.028 252.347 32.724C252.075 33.412 251.679 34.016 251.159 34.536C250.639 35.048 249.995 35.452 249.227 35.748C248.467 36.044 247.603 36.192 246.635 36.192C246.083 36.192 245.531 36.136 244.979 36.024C244.435 35.912 243.907 35.756 243.395 35.556C242.891 35.356 242.415 35.116 241.967 34.836C241.519 34.556 241.127 34.244 240.791 33.9L241.847 32.196C241.935 32.068 242.051 31.964 242.195 31.884C242.339 31.796 242.491 31.752 242.651 31.752C242.867 31.752 243.095 31.832 243.335 31.992C243.575 32.152 243.851 32.328 244.163 32.52C244.475 32.712 244.835 32.888 245.243 33.048C245.659 33.208 246.155 33.288 246.731 33.288C247.571 33.288 248.219 33.096 248.675 32.712C249.139 32.328 249.371 31.756 249.371 30.996C249.371 30.556 249.255 30.2 249.023 29.928C248.799 29.656 248.503 29.428 248.135 29.244C247.767 29.06 247.347 28.904 246.875 28.776C246.403 28.64 245.919 28.492 245.423 28.332C244.927 28.172 244.443 27.98 243.971 27.756C243.499 27.532 243.079 27.236 242.711 26.868C242.343 26.5 242.043 26.044 241.811 25.5C241.587 24.956 241.475 24.28 241.475 23.472C241.475 22.824 241.603 22.196 241.859 21.588C242.115 20.98 242.491 20.44 242.987 19.968C243.483 19.496 244.091 19.116 244.811 18.828C245.539 18.54 246.371 18.396 247.307 18.396C248.355 18.396 249.323 18.56 250.211 18.888C251.107 19.208 251.863 19.656 252.479 20.232L251.591 21.924Z" fill="#407368"/>
<path d="M65.8196 57H63.2696V46.0725H65.8196V57ZM79.7928 46.0725V57H78.4728C78.2778 57 78.1128 56.97 77.9778 56.91C77.8478 56.845 77.7178 56.735 77.5878 56.58L72.4353 50.0625C72.4553 50.2575 72.4678 50.4475 72.4728 50.6325C72.4828 50.8125 72.4878 50.9825 72.4878 51.1425V57H70.2528V46.0725H71.5878C71.6978 46.0725 71.7903 46.0775 71.8653 46.0875C71.9403 46.0975 72.0078 46.1175 72.0678 46.1475C72.1278 46.1725 72.1853 46.21 72.2403 46.26C72.2953 46.31 72.3578 46.3775 72.4278 46.4625L77.6253 53.025C77.6003 52.815 77.5828 52.6125 77.5728 52.4175C77.5628 52.2175 77.5578 52.03 77.5578 51.855V46.0725H79.7928ZM94.153 51.5325C94.153 52.3225 94.0155 53.0525 93.7405 53.7225C93.4705 54.3875 93.088 54.965 92.593 55.455C92.098 55.94 91.5005 56.32 90.8005 56.595C90.1055 56.865 89.333 57 88.483 57H84.238V46.0725H88.483C89.333 46.0725 90.1055 46.21 90.8005 46.485C91.5005 46.76 92.098 47.14 92.593 47.625C93.088 48.11 93.4705 48.6875 93.7405 49.3575C94.0155 50.0225 94.153 50.7475 94.153 51.5325ZM91.558 51.5325C91.558 50.9925 91.488 50.505 91.348 50.07C91.208 49.635 91.0055 49.2675 90.7405 48.9675C90.4805 48.6625 90.1605 48.43 89.7805 48.27C89.4005 48.105 88.968 48.0225 88.483 48.0225H86.788V55.05H88.483C88.968 55.05 89.4005 54.97 89.7805 54.81C90.1605 54.645 90.4805 54.4125 90.7405 54.1125C91.0055 53.8075 91.208 53.4375 91.348 53.0025C91.488 52.5675 91.558 52.0775 91.558 51.5325ZM102.534 54.9975C102.874 54.9975 103.177 54.9425 103.442 54.8325C103.712 54.7175 103.939 54.555 104.124 54.345C104.309 54.135 104.449 53.88 104.544 53.58C104.644 53.275 104.694 52.93 104.694 52.545V46.0725H107.229V52.545C107.229 53.215 107.119 53.83 106.899 54.39C106.684 54.95 106.374 55.4325 105.969 55.8375C105.564 56.2425 105.072 56.5575 104.492 56.7825C103.912 57.0075 103.259 57.12 102.534 57.12C101.804 57.12 101.149 57.0075 100.569 56.7825C99.9891 56.5575 99.4966 56.2425 99.0916 55.8375C98.6866 55.4325 98.3766 54.95 98.1616 54.39C97.9466 53.83 97.8391 53.215 97.8391 52.545V46.0725H100.374V52.5375C100.374 52.9225 100.422 53.2675 100.517 53.5725C100.617 53.8725 100.759 54.13 100.944 54.345C101.129 54.555 101.354 54.7175 101.619 54.8325C101.889 54.9425 102.194 54.9975 102.534 54.9975ZM117.572 48.2925C117.497 48.4125 117.417 48.5025 117.332 48.5625C117.252 48.6225 117.147 48.6525 117.017 48.6525C116.902 48.6525 116.777 48.6175 116.642 48.5475C116.512 48.4725 116.362 48.39 116.192 48.3C116.027 48.21 115.837 48.13 115.622 48.06C115.407 47.985 115.162 47.9475 114.887 47.9475C114.412 47.9475 114.057 48.05 113.822 48.255C113.592 48.455 113.477 48.7275 113.477 49.0725C113.477 49.2925 113.547 49.475 113.687 49.62C113.827 49.765 114.009 49.89 114.234 49.995C114.464 50.1 114.724 50.1975 115.014 50.2875C115.309 50.3725 115.609 50.47 115.914 50.58C116.219 50.685 116.517 50.81 116.807 50.955C117.102 51.1 117.362 51.285 117.587 51.51C117.817 51.735 118.002 52.01 118.142 52.335C118.282 52.655 118.352 53.0425 118.352 53.4975C118.352 54.0025 118.264 54.475 118.089 54.915C117.914 55.355 117.659 55.74 117.324 56.07C116.994 56.395 116.584 56.6525 116.094 56.8425C115.609 57.0275 115.057 57.12 114.437 57.12C114.097 57.12 113.749 57.085 113.394 57.015C113.044 56.945 112.704 56.8475 112.374 56.7225C112.044 56.5925 111.734 56.44 111.444 56.265C111.154 56.09 110.902 55.895 110.687 55.68L111.437 54.495C111.497 54.41 111.574 54.34 111.669 54.285C111.769 54.225 111.877 54.195 111.992 54.195C112.142 54.195 112.292 54.2425 112.442 54.3375C112.597 54.4325 112.769 54.5375 112.959 54.6525C113.154 54.7675 113.377 54.8725 113.627 54.9675C113.877 55.0625 114.172 55.11 114.512 55.11C114.972 55.11 115.329 55.01 115.584 54.81C115.839 54.605 115.967 54.2825 115.967 53.8425C115.967 53.5875 115.897 53.38 115.757 53.22C115.617 53.06 115.432 52.9275 115.202 52.8225C114.977 52.7175 114.719 52.625 114.429 52.545C114.139 52.465 113.842 52.3775 113.537 52.2825C113.232 52.1825 112.934 52.0625 112.644 51.9225C112.354 51.7775 112.094 51.59 111.864 51.36C111.639 51.125 111.457 50.835 111.317 50.49C111.177 50.14 111.107 49.71 111.107 49.2C111.107 48.79 111.189 48.39 111.354 48C111.519 47.61 111.762 47.2625 112.082 46.9575C112.402 46.6525 112.794 46.41 113.259 46.23C113.724 46.045 114.257 45.9525 114.857 45.9525C115.192 45.9525 115.517 45.98 115.832 46.035C116.152 46.085 116.454 46.1625 116.739 46.2675C117.024 46.3675 117.289 46.49 117.534 46.635C117.784 46.775 118.007 46.935 118.202 47.115L117.572 48.2925ZM130.018 48.0825H126.943V57H124.408V48.0825H121.333V46.0725H130.018V48.0825ZM137.186 51.21C137.531 51.21 137.823 51.1675 138.063 51.0825C138.308 50.9925 138.508 50.87 138.663 50.715C138.818 50.56 138.931 50.38 139.001 50.175C139.071 49.965 139.106 49.74 139.106 49.5C139.106 49.02 138.948 48.645 138.633 48.375C138.323 48.105 137.841 47.97 137.186 47.97H136.166V51.21H137.186ZM142.571 57H140.276C139.851 57 139.546 56.84 139.361 56.52L137.546 53.3475C137.461 53.2125 137.366 53.115 137.261 53.055C137.156 52.99 137.006 52.9575 136.811 52.9575H136.166V57H133.631V46.0725H137.186C137.976 46.0725 138.648 46.155 139.203 46.32C139.763 46.48 140.218 46.705 140.568 46.995C140.923 47.285 141.181 47.6275 141.341 48.0225C141.501 48.4175 141.581 48.8475 141.581 49.3125C141.581 49.6675 141.533 50.0025 141.438 50.3175C141.343 50.6325 141.203 50.925 141.018 51.195C140.833 51.46 140.603 51.6975 140.328 51.9075C140.058 52.1175 139.746 52.29 139.391 52.425C139.556 52.51 139.711 52.6175 139.856 52.7475C140.001 52.8725 140.131 53.0225 140.246 53.1975L142.571 57ZM148.364 57H145.814V46.0725H148.364V57ZM155.347 48.0225V50.5725H158.782V52.4475H155.347V55.05H159.832V57H152.797V46.0725H159.832V48.0225H155.347ZM169.758 48.2925C169.683 48.4125 169.603 48.5025 169.518 48.5625C169.438 48.6225 169.333 48.6525 169.203 48.6525C169.088 48.6525 168.963 48.6175 168.828 48.5475C168.698 48.4725 168.548 48.39 168.378 48.3C168.213 48.21 168.023 48.13 167.808 48.06C167.593 47.985 167.348 47.9475 167.073 47.9475C166.598 47.9475 166.243 48.05 166.008 48.255C165.778 48.455 165.663 48.7275 165.663 49.0725C165.663 49.2925 165.733 49.475 165.873 49.62C166.013 49.765 166.196 49.89 166.421 49.995C166.651 50.1 166.911 50.1975 167.201 50.2875C167.496 50.3725 167.796 50.47 168.101 50.58C168.406 50.685 168.703 50.81 168.993 50.955C169.288 51.1 169.548 51.285 169.773 51.51C170.003 51.735 170.188 52.01 170.328 52.335C170.468 52.655 170.538 53.0425 170.538 53.4975C170.538 54.0025 170.451 54.475 170.276 54.915C170.101 55.355 169.846 55.74 169.511 56.07C169.181 56.395 168.771 56.6525 168.281 56.8425C167.796 57.0275 167.243 57.12 166.623 57.12C166.283 57.12 165.936 57.085 165.581 57.015C165.231 56.945 164.891 56.8475 164.561 56.7225C164.231 56.5925 163.921 56.44 163.631 56.265C163.341 56.09 163.088 55.895 162.873 55.68L163.623 54.495C163.683 54.41 163.761 54.34 163.856 54.285C163.956 54.225 164.063 54.195 164.178 54.195C164.328 54.195 164.478 54.2425 164.628 54.3375C164.783 54.4325 164.956 54.5375 165.146 54.6525C165.341 54.7675 165.563 54.8725 165.813 54.9675C166.063 55.0625 166.358 55.11 166.698 55.11C167.158 55.11 167.516 55.01 167.771 54.81C168.026 54.605 168.153 54.2825 168.153 53.8425C168.153 53.5875 168.083 53.38 167.943 53.22C167.803 53.06 167.618 52.9275 167.388 52.8225C167.163 52.7175 166.906 52.625 166.616 52.545C166.326 52.465 166.028 52.3775 165.723 52.2825C165.418 52.1825 165.121 52.0625 164.831 51.9225C164.541 51.7775 164.281 51.59 164.051 51.36C163.826 51.125 163.643 50.835 163.503 50.49C163.363 50.14 163.293 49.71 163.293 49.2C163.293 48.79 163.376 48.39 163.541 48C163.706 47.61 163.948 47.2625 164.268 46.9575C164.588 46.6525 164.981 46.41 165.446 46.23C165.911 46.045 166.443 45.9525 167.043 45.9525C167.378 45.9525 167.703 45.98 168.018 46.035C168.338 46.085 168.641 46.1625 168.926 46.2675C169.211 46.3675 169.476 46.49 169.721 46.635C169.971 46.775 170.193 46.935 170.388 47.115L169.758 48.2925ZM186.733 54.975V57H180.148V46.0725H182.683V54.975H186.733ZM192.904 57H190.354V46.0725H192.904V57ZM209.622 46.0725V57H207.387V50.715C207.387 50.57 207.39 50.4125 207.395 50.2425C207.405 50.0725 207.42 49.9 207.44 49.725L204.537 55.3425C204.447 55.5175 204.325 55.65 204.17 55.74C204.02 55.83 203.847 55.875 203.652 55.875H203.307C203.112 55.875 202.937 55.83 202.782 55.74C202.632 55.65 202.512 55.5175 202.422 55.3425L199.52 49.71C199.535 49.89 199.547 50.0675 199.557 50.2425C199.567 50.4125 199.572 50.57 199.572 50.715V57H197.337V46.0725H199.272C199.382 46.0725 199.477 46.075 199.557 46.08C199.642 46.085 199.717 46.1 199.782 46.125C199.847 46.15 199.905 46.19 199.955 46.245C200.01 46.295 200.062 46.3675 200.112 46.4625L202.925 52.005C203.025 52.195 203.12 52.3925 203.21 52.5975C203.305 52.8025 203.395 53.0125 203.48 53.2275C203.565 53.0075 203.652 52.7925 203.742 52.5825C203.837 52.3725 203.937 52.1725 204.042 51.9825L206.847 46.4625C206.897 46.3675 206.947 46.295 206.997 46.245C207.052 46.19 207.112 46.15 207.177 46.125C207.242 46.1 207.315 46.085 207.395 46.08C207.48 46.075 207.577 46.0725 207.687 46.0725H209.622ZM216.612 57H214.062V46.0725H216.612V57ZM228.898 48.0825H225.823V57H223.288V48.0825H220.213V46.0725H228.898V48.0825ZM235.061 48.0225V50.5725H238.496V52.4475H235.061V55.05H239.546V57H232.511V46.0725H239.546V48.0225H235.061ZM253.349 51.5325C253.349 52.3225 253.212 53.0525 252.937 53.7225C252.667 54.3875 252.284 54.965 251.789 55.455C251.294 55.94 250.697 56.32 249.997 56.595C249.302 56.865 248.529 57 247.679 57H243.434V46.0725H247.679C248.529 46.0725 249.302 46.21 249.997 46.485C250.697 46.76 251.294 47.14 251.789 47.625C252.284 48.11 252.667 48.6875 252.937 49.3575C253.212 50.0225 253.349 50.7475 253.349 51.5325ZM250.754 51.5325C250.754 50.9925 250.684 50.505 250.544 50.07C250.404 49.635 250.202 49.2675 249.937 48.9675C249.677 48.6625 249.357 48.43 248.977 48.27C248.597 48.105 248.164 48.0225 247.679 48.0225H245.984V55.05H247.679C248.164 55.05 248.597 54.97 248.977 54.81C249.357 54.645 249.677 54.4125 249.937 54.1125C250.202 53.8075 250.404 53.4375 250.544 53.0025C250.684 52.5675 250.754 52.0775 250.754 51.5325Z" fill="#A5B82E"/>
</svg>
