<svg width="176" height="44" viewBox="0 0 176 44" fill="none" xmlns="http://www.w3.org/2000/svg">
<g clip-path="url(#clip0_1275_2679)">
<path d="M39.7922 2.51614C40.0467 2.60574 40.2683 2.76962 40.4286 2.98659C40.5889 3.20355 40.6804 3.46361 40.6912 3.73314C40.8294 5.17248 40.8884 6.61834 40.8677 8.06415C40.8525 8.72741 40.8373 9.39067 40.7932 10.0539C40.5437 9.95049 40.3079 9.84704 40.0569 9.74968C39.4241 9.5002 38.8049 9.26442 38.1706 9.04232C38.1858 8.7046 38.201 8.38056 38.201 8.04132C38.2147 6.9658 38.1858 5.87506 38.0975 4.77064C37.0661 4.44661 35.9906 4.15149 34.9029 3.88679C33.5338 3.56276 32.1646 3.29655 30.7773 3.10488C29.9969 3.00295 29.2454 2.91319 28.5243 2.84017C27.8032 2.76715 27.035 2.72303 26.2546 2.68805C25.6461 2.67283 25.0756 2.65914 24.458 2.65914L23.559 2.67284C23.2928 2.67284 22.9839 2.68805 22.6599 2.68805C21.8795 2.71847 21.128 2.77628 20.3902 2.84017C19.6524 2.90406 18.9176 3.00295 18.1372 3.10488C16.7681 3.29655 15.3822 3.56124 14.0116 3.88679C12.9208 4.15149 11.8605 4.44661 10.817 4.77064C10.6375 7.19227 10.7017 9.62581 11.0087 12.0346C11.1716 13.3821 11.4077 14.7197 11.716 16.0416C11.8925 16.7931 12.0994 17.5446 12.3245 18.2656L12.3398 18.325L12.3534 18.3843L12.3687 18.4436L12.3976 18.5014L12.4128 18.5608L12.4279 18.6201L12.4432 18.6794L12.501 18.8407V18.8559L12.5162 18.9137L12.6197 19.1936L12.6333 19.2529L12.7231 19.4887L12.7368 19.5329C13.1918 20.8521 13.7185 22.1456 14.3143 23.4075L14.3432 23.4516L14.3585 23.4972L14.3721 23.5261L14.4025 23.5703L14.4163 23.6144L14.4315 23.6585L14.4604 23.6874C14.6825 24.1437 14.9168 24.6001 15.1541 25.0565C15.3305 25.3516 15.4917 25.665 15.6545 25.9404C15.8462 26.2801 16.0232 26.5747 16.1855 26.8242C16.6859 27.635 17.2153 28.4306 17.7767 29.1974C18.338 29.9641 18.91 30.7003 19.5444 31.4366C19.7807 31.7165 20.0459 32.0111 20.34 32.3205C20.6199 32.6247 20.8846 32.929 21.1356 33.1891C21.7837 33.8524 22.4606 34.4867 23.1391 35.1044L23.419 35.3402C23.2273 35.4923 23.0357 35.6444 22.8303 35.7965C22.2994 36.1936 21.7548 36.5769 21.2086 36.9603C18.265 34.3214 15.7325 31.2572 13.6951 27.8693V27.8541L13.6799 27.8404L13.6648 27.8252C13.5476 27.6335 13.4441 27.4418 13.3407 27.2806C13.1642 26.9565 12.9725 26.631 12.8113 26.3222C12.3245 25.4383 11.8819 24.5256 11.4559 23.5672C11.03 22.6088 10.6603 21.6672 10.3211 20.724C9.84718 19.3907 9.44393 18.0334 9.11313 16.6577C8.11226 12.425 7.81373 8.05659 8.22935 3.72706C8.24181 3.45713 8.33562 3.19729 8.49854 2.9817C8.66145 2.76612 8.88582 2.60488 9.1421 2.51919C10.5416 2.0476 11.9716 1.63534 13.4153 1.28089C14.83 0.956863 16.2874 0.672392 17.7767 0.456375C18.5373 0.35293 19.3375 0.264699 20.1772 0.191679C20.9881 0.117138 21.7837 0.0593291 22.5641 0.0289041C22.8592 0.0289041 23.1725 0.0136953 23.5072 0.0136953L24.4656 0L25.4225 0.0136953C25.7618 0.0136953 26.0857 0.0289041 26.3656 0.0289041C27.1613 0.0593291 27.9569 0.117138 28.7677 0.191679C29.6074 0.264699 30.403 0.35293 31.1545 0.456375C32.656 0.676956 34.1149 0.956863 35.5297 1.28089C36.9597 1.63534 38.3881 2.04152 39.8029 2.51919L39.7922 2.51614ZM31.1576 29.1989C31.6885 28.4474 32.2224 27.6776 32.7047 26.885C32.8711 26.5862 33.1442 26.361 33.4692 26.2544C33.7943 26.1478 34.1476 26.1677 34.4587 26.31C37.0189 27.5337 39.343 29.1997 41.3241 31.2313C41.5559 31.4449 41.705 31.7334 41.7453 32.0461C41.7857 32.3587 41.7147 32.6756 41.5447 32.9411C41.1325 33.5892 40.6761 34.2661 40.2197 34.9294C39.7633 35.5927 39.2613 36.2407 38.776 36.8599C38.4216 37.3163 38.0382 37.7878 37.6259 38.2594C37.273 38.6717 36.8745 39.1281 36.4333 39.6149C35.8142 40.2933 35.2163 40.911 34.6078 41.5149H34.5926C34.0039 42.1052 33.3756 42.6802 32.7215 43.2537C32.5285 43.4417 32.2836 43.5675 32.0184 43.615C31.7532 43.6624 31.4798 43.6293 31.2336 43.5199C29.2944 42.6297 27.4273 41.5901 25.6491 40.4105C25.8849 40.234 26.1207 40.0576 26.3565 39.8659C26.857 39.4673 27.359 39.0703 27.8291 38.6489C29.0307 39.4126 30.2756 40.106 31.5577 40.7254C31.9547 40.3572 32.3381 39.9891 32.7366 39.6057C33.3542 38.9972 33.9293 38.4131 34.4602 37.8228C34.8131 37.4547 35.1813 37.0135 35.5951 36.5419C35.948 36.1145 36.3162 35.6718 36.6706 35.2017C37.1559 34.6115 37.5985 34.0075 38.026 33.3884C38.2618 33.0841 38.4824 32.7403 38.703 32.4163C38.0399 31.7805 37.3305 31.1948 36.5808 30.6638C35.8707 30.1489 35.1279 29.6809 34.3568 29.2628C34.0176 29.7785 33.6646 30.2805 33.3101 30.7658C32.6925 31.6207 32.0582 32.4163 31.4101 33.183C31.115 33.5207 30.8351 33.8311 30.5704 34.1262C30.4517 34.2783 30.3194 34.4061 30.187 34.5521L30.1718 34.5674L30.1581 34.5826L30.1429 34.5963L30.1277 34.6115L30.114 34.6267L30.0988 34.6419L30.0836 34.6556L30.0547 34.686V34.6997C28.6479 36.1815 27.1364 37.5602 25.532 38.8253C23.1075 40.687 20.4773 42.2642 17.693 43.526C17.44 43.6395 17.158 43.6721 16.8857 43.6193C16.6134 43.5664 16.3641 43.4308 16.1718 43.2309C15.5222 42.6711 14.9183 42.096 14.3143 41.521C13.7058 40.9323 13.1065 40.304 12.4888 39.6209C12.0325 39.1341 11.6354 38.6778 11.2809 38.2655C10.8839 37.7939 10.5005 37.3223 10.1324 36.866C9.64559 36.2331 9.17402 35.5988 8.70243 34.9355C8.23085 34.2722 7.78969 33.5953 7.37743 32.9472C7.05188 32.4315 6.71412 31.8823 6.37488 31.3119C6.07063 30.7521 5.75573 30.1922 5.46213 29.6385C5.08029 28.9311 4.72587 28.2085 4.38663 27.4875C4.04739 26.7664 3.7538 26.0423 3.44498 25.2908C2.88516 23.9217 2.39837 22.5221 1.9709 21.0921C1.54343 19.6622 1.1905 18.22 0.906028 16.7611C0.85065 16.4924 0.880528 16.2131 0.991524 15.9622C1.10252 15.7113 1.28907 15.5013 1.52515 15.3616C3.24047 14.1423 5.04811 13.0585 6.93168 12.1198C7.0047 12.8272 7.09443 13.5194 7.21156 14.2115C7.24047 14.4473 7.28459 14.6831 7.3287 14.9189C6.07827 15.5729 4.86824 16.3014 3.70511 17.1004C3.94091 18.2048 4.2208 19.2803 4.52962 20.3269C4.92819 21.6824 5.39983 23.0074 5.91553 24.2822C6.19544 24.9744 6.48903 25.6665 6.81305 26.3587C7.13708 27.0509 7.4626 27.7278 7.81553 28.3774C8.09544 28.9235 8.3906 29.4423 8.68572 29.9686C8.97932 30.4554 9.29421 30.9711 9.62737 31.5157C10.0411 32.1638 10.4534 32.7981 10.8808 33.3869C11.3083 33.9756 11.7647 34.6039 12.2363 35.2002C12.6044 35.6703 12.9574 36.1129 13.3255 36.5404C13.7241 37.012 14.1074 37.4532 14.4452 37.8213C14.9913 38.4116 15.5648 39.0003 16.184 39.6042C16.5673 39.9876 16.9659 40.3557 17.3477 40.7102C19.5646 39.6438 21.6675 38.3553 23.6243 36.8644C26.4923 34.6896 29.0285 32.1089 31.1531 29.2034L31.1576 29.1989ZM47.3802 15.3555C47.6155 15.4968 47.8021 15.7064 47.9152 15.9564C48.0282 16.2065 48.0624 16.4851 48.0131 16.755C47.718 18.2139 47.365 19.6576 46.9375 21.086C46.51 22.5145 46.0248 23.9156 45.4786 25.2847C45.4233 25.4213 45.3433 25.5466 45.2428 25.6544C45.0117 25.9223 44.6844 26.0886 44.3316 26.117C43.9789 26.1455 43.6291 26.0339 43.358 25.8065C42.3625 24.9399 41.3089 24.1424 40.2045 23.4196C39.1193 22.7098 37.9869 22.075 36.8151 21.5196C36.5078 21.381 36.2634 21.1324 36.1299 20.8228C35.9965 20.5132 35.9838 20.1648 36.0941 19.8462C36.5348 18.6064 36.9035 17.3422 37.1985 16.0598C37.3308 15.5593 37.4342 15.0573 37.5377 14.5386C37.8769 14.6709 38.201 14.8048 38.5402 14.9508C39.0407 15.1729 39.5412 15.4072 40.0417 15.6445C39.9686 15.9975 39.8896 16.3367 39.8059 16.6759C39.5716 17.6632 39.3054 18.6536 38.9966 19.6226C39.9094 20.0942 40.8084 20.6236 41.677 21.1834C42.3403 21.6261 43.0036 22.0961 43.6379 22.5829C43.9026 21.8467 44.1536 21.0952 44.3742 20.33C44.6982 19.2834 44.9629 18.2002 45.2139 17.1034C43.2805 15.7814 41.2227 14.6513 39.0696 13.7293C37.7435 13.1562 36.3859 12.6589 35.0033 12.24C33.7399 11.8584 32.456 11.5486 31.1576 11.312C30.2448 11.1508 29.3017 11.0184 28.3433 10.915C27.3849 10.8115 26.4432 10.7522 25.5001 10.7233L24.9707 10.7081H23.9393L23.4236 10.7233C22.4804 10.7522 21.522 10.8115 20.5788 10.915C19.6356 11.0184 18.6788 11.1508 17.7508 11.312C16.4684 11.5478 15.1875 11.8718 13.9051 12.24C13.4183 12.3921 12.933 12.5442 12.4462 12.7116C12.4021 12.4317 12.358 12.167 12.3291 11.887C12.2408 11.2542 12.177 10.6351 12.1374 10.0007C16.1125 8.68644 20.2728 8.01874 24.4596 8.02307C29.6383 8.03017 34.7666 9.04066 39.561 10.9986C42.326 12.1508 44.9508 13.614 47.3847 15.3601L47.3802 15.3555ZM22.8333 27.0098C22.6128 26.7299 22.4211 26.4789 22.2446 26.2583C20.8427 24.339 19.6523 22.2738 18.694 20.0988C18.5617 19.8051 18.4278 19.51 18.3107 19.2149C18.1935 18.9198 18.1038 18.6703 18.0064 18.3904C17.9643 18.2931 17.9346 18.1909 17.9182 18.0861C17.8868 17.9129 17.8902 17.7351 17.9282 17.5632C17.9662 17.3912 18.0381 17.2286 18.1396 17.0848C18.2411 16.9409 18.3703 16.8187 18.5195 16.7252C18.6688 16.6318 18.8351 16.569 19.0089 16.5405C19.2888 16.4812 19.6174 16.4371 19.952 16.3884L20.9089 16.2545C21.4991 16.1967 22.0879 16.1526 22.6918 16.1024C23.2958 16.0522 23.9088 16.0583 24.461 16.0583C25.0133 16.0583 25.6096 16.072 26.2424 16.1024C26.8509 16.1465 27.4367 16.1907 28.0117 16.2545L28.9685 16.3884C29.3229 16.4325 29.6318 16.4767 29.9269 16.5405C30.0021 16.5527 30.076 16.572 30.1475 16.5984C30.4809 16.7187 30.7532 16.966 30.9051 17.2863C31.057 17.6066 31.0761 17.9739 30.9583 18.3082C30.8396 18.6125 30.7225 18.9259 30.6038 19.221C30.4852 19.5161 30.368 19.8112 30.2357 20.1048C29.7571 21.189 29.2208 22.2467 28.6292 23.2736C28.0349 24.3078 27.3807 25.3065 26.6699 26.2644C26.4488 26.5575 26.2576 26.808 26.0964 27.0159C25.8454 27.3201 25.6537 27.5757 25.4879 27.7522C25.436 27.818 25.3762 27.8773 25.3099 27.9286C25.1761 28.0414 25.0212 28.1263 24.8542 28.1785C24.6872 28.2308 24.5115 28.2492 24.3374 28.2328C24.1632 28.2163 23.994 28.1654 23.8397 28.0829C23.6854 28.0003 23.5492 27.8879 23.4388 27.7522C23.2182 27.5012 23.0265 27.2654 22.8303 27.0159L22.8333 27.0098Z" fill="#38CEC9"/>
</g>
<path d="M62.3227 19.1521C63.2652 17.6859 64.9234 16.9528 67.2972 16.9528V20.0684C67.0179 20.0161 66.7649 19.9899 66.5379 19.9899C65.2638 19.9899 64.2688 20.3652 63.5532 21.1157C62.8376 21.8488 62.4798 22.9135 62.4798 24.3099V31.091H59.207V17.1099H62.3227V19.1521Z" fill="#1B1E59"/>
<path d="M83.0889 24.179C83.0889 24.4059 83.0715 24.7288 83.0366 25.1477H72.0664C72.2584 26.1775 72.7558 26.9979 73.5588 27.6088C74.3791 28.2022 75.3915 28.499 76.5958 28.499C78.1319 28.499 79.3973 27.9928 80.3922 26.9804L82.1464 28.9964C81.518 29.747 80.7239 30.3142 79.7638 30.6982C78.8039 31.0822 77.7217 31.2742 76.5173 31.2742C74.9813 31.2742 73.6286 30.9688 72.4591 30.3579C71.2897 29.747 70.382 28.9004 69.7362 27.8182C69.1078 26.7186 68.7937 25.4793 68.7937 24.1004C68.7937 22.739 69.0991 21.5172 69.71 20.435C70.3384 19.3353 71.2024 18.4801 72.302 17.8692C73.4017 17.2582 74.6409 16.9528 76.0198 16.9528C77.3813 16.9528 78.5944 17.2582 79.6591 17.8692C80.7413 18.4626 81.5791 19.3092 82.1726 20.4088C82.7835 21.491 83.0889 22.7477 83.0889 24.179ZM76.0198 19.571C74.9726 19.571 74.0824 19.8852 73.3493 20.5135C72.6337 21.1244 72.1973 21.9448 72.0402 22.9746H79.9733C79.8337 21.9622 79.406 21.1419 78.6904 20.5135C77.9748 19.8852 77.0846 19.571 76.0198 19.571Z" fill="#1B1E59"/>
<path d="M90.5526 31.2742C89.4181 31.2742 88.3097 31.1259 87.2275 30.8292C86.1453 30.5324 85.2813 30.1572 84.6355 29.7033L85.8922 27.2161C86.5206 27.635 87.2711 27.9753 88.1439 28.2372C89.0341 28.4815 89.9068 28.6037 90.7621 28.6037C92.717 28.6037 93.6944 28.0888 93.6944 27.059C93.6944 26.5702 93.4413 26.2299 92.9351 26.0379C92.4464 25.8459 91.6522 25.6626 90.5526 25.4881C89.4006 25.3135 88.4581 25.1128 87.725 24.8859C87.0093 24.659 86.381 24.2662 85.8399 23.7077C85.3162 23.1317 85.0544 22.3375 85.0544 21.3252C85.0544 19.9986 85.6042 18.9426 86.7039 18.1572C87.821 17.3542 89.3221 16.9528 91.2071 16.9528C92.1671 16.9528 93.1271 17.0662 94.0871 17.2932C95.0471 17.5026 95.8326 17.7906 96.4435 18.1572L95.1868 20.6444C93.9999 19.9462 92.6646 19.5972 91.181 19.5972C90.221 19.5972 89.4879 19.7455 88.9817 20.0422C88.493 20.3215 88.2486 20.6968 88.2486 21.1681C88.2486 21.6917 88.5104 22.067 89.0341 22.2939C89.5751 22.5033 90.4042 22.7041 91.5213 22.8961C92.6384 23.0706 93.5548 23.2713 94.2704 23.4982C94.9861 23.7252 95.597 24.1092 96.1031 24.6502C96.6268 25.1913 96.8886 25.9593 96.8886 26.9542C96.8886 28.2633 96.3213 29.3106 95.1868 30.0961C94.0522 30.8815 92.5075 31.2742 90.5526 31.2742Z" fill="#1B1E59"/>
<path d="M112.85 24.179C112.85 24.4059 112.833 24.7288 112.798 25.1477H101.828C102.02 26.1775 102.517 26.9979 103.32 27.6088C104.14 28.2022 105.153 28.499 106.357 28.499C107.893 28.499 109.159 27.9928 110.154 26.9804L111.908 28.9964C111.279 29.747 110.485 30.3142 109.525 30.6982C108.565 31.0822 107.483 31.2742 106.279 31.2742C104.743 31.2742 103.39 30.9688 102.22 30.3579C101.051 29.747 100.143 28.9004 99.4976 27.8182C98.8692 26.7186 98.555 25.4793 98.555 24.1004C98.555 22.739 98.8605 21.5172 99.4714 20.435C100.1 19.3353 100.964 18.4801 102.063 17.8692C103.163 17.2582 104.402 16.9528 105.781 16.9528C107.143 16.9528 108.356 17.2582 109.42 17.8692C110.503 18.4626 111.34 19.3092 111.934 20.4088C112.545 21.491 112.85 22.7477 112.85 24.179ZM105.781 19.571C104.734 19.571 103.844 19.8852 103.111 20.5135C102.395 21.1244 101.959 21.9448 101.802 22.9746H109.735C109.595 21.9622 109.167 21.1419 108.452 20.5135C107.736 19.8852 106.846 19.571 105.781 19.571Z" fill="#1B1E59"/>
<path d="M122.409 31.2742C120.96 31.2742 119.659 30.9688 118.507 30.3579C117.355 29.747 116.457 28.9004 115.811 27.8182C115.165 26.7186 114.842 25.4793 114.842 24.1004C114.842 22.7215 115.165 21.491 115.811 20.4088C116.457 19.3266 117.347 18.4801 118.481 17.8692C119.633 17.2582 120.942 16.9528 122.409 16.9528C123.787 16.9528 124.992 17.2321 126.022 17.7906C127.069 18.3492 127.854 19.1521 128.378 20.1993L125.865 21.6655C125.463 21.0197 124.957 20.5397 124.346 20.2255C123.753 19.8939 123.098 19.7281 122.382 19.7281C121.161 19.7281 120.148 20.1295 119.345 20.9324C118.542 21.7179 118.141 22.7739 118.141 24.1004C118.141 25.427 118.534 26.4917 119.319 27.2946C120.122 28.0801 121.143 28.4728 122.382 28.4728C123.098 28.4728 123.753 28.3157 124.346 28.0015C124.957 27.6699 125.463 27.1812 125.865 26.5353L128.378 28.0015C127.837 29.0488 127.043 29.8604 125.995 30.4364C124.966 30.995 123.77 31.2742 122.409 31.2742Z" fill="#1B1E59"/>
<path d="M144.743 17.1099V31.091H141.627V29.3106C141.104 29.939 140.449 30.4277 139.664 30.7768C138.878 31.1084 138.032 31.2742 137.124 31.2742C135.256 31.2742 133.782 30.7593 132.699 29.7295C131.635 28.6822 131.102 27.1375 131.102 25.0953V17.1099H134.375V24.6502C134.375 25.907 134.654 26.8495 135.213 27.4779C135.789 28.0888 136.6 28.3942 137.648 28.3942C138.817 28.3942 139.742 28.0364 140.423 27.3208C141.121 26.5877 141.47 25.5404 141.47 24.179V17.1099H144.743Z" fill="#1B1E59"/>
<path d="M152.144 19.1521C153.086 17.6859 154.744 16.9528 157.118 16.9528V20.0684C156.839 20.0161 156.586 19.9899 156.359 19.9899C155.085 19.9899 154.09 20.3652 153.374 21.1157C152.659 21.8488 152.301 22.9135 152.301 24.3099V31.091H149.028V17.1099H152.144V19.1521Z" fill="#1B1E59"/>
<path d="M167.644 16.9528C169.006 16.9528 170.219 17.2495 171.284 17.843C172.366 18.4364 173.212 19.2742 173.823 20.3564C174.434 21.4386 174.74 22.6866 174.74 24.1004C174.74 25.5142 174.434 26.771 173.823 27.8706C173.212 28.9528 172.366 29.7906 171.284 30.3841C170.219 30.9775 169.006 31.2742 167.644 31.2742C166.684 31.2742 165.803 31.1084 165 30.7768C164.215 30.4452 163.551 29.9477 163.01 29.2844V31.091H159.895V11.6641H163.167V18.8117C163.726 18.2008 164.38 17.7382 165.131 17.4241C165.899 17.1099 166.737 16.9528 167.644 16.9528ZM167.278 28.4728C168.482 28.4728 169.468 28.0713 170.236 27.2684C171.022 26.4655 171.415 25.4095 171.415 24.1004C171.415 22.7913 171.022 21.7353 170.236 20.9324C169.468 20.1295 168.482 19.7281 167.278 19.7281C166.492 19.7281 165.785 19.9113 165.157 20.2779C164.529 20.627 164.031 21.1332 163.665 21.7964C163.298 22.4597 163.115 23.2277 163.115 24.1004C163.115 24.9732 163.298 25.7412 163.665 26.4044C164.031 27.0677 164.529 27.5826 165.157 27.9492C165.785 28.2982 166.492 28.4728 167.278 28.4728Z" fill="#1B1E59"/>
<defs>
<clipPath id="clip0_1275_2679">
<rect width="48" height="43.6364" fill="white" transform="translate(0.332031)"/>
</clipPath>
</defs>
</svg>
