<svg width="155" height="44" viewBox="0 0 155 44" fill="none" xmlns="http://www.w3.org/2000/svg">
<path d="M53.1491 14.5482C53.1491 22.4028 61.5927 23.4631 61.5927 29.1184C61.5927 31.082 60.7287 31.789 59.3542 31.789C57.9796 31.789 57.1156 31.082 57.1156 29.1184V27.1548H53.0312V28.8435C53.0312 33.2421 55.2305 35.7555 59.472 35.7555C63.7134 35.7555 65.9127 33.2421 65.9127 28.8435C65.9127 20.989 57.4691 19.9286 57.4691 14.2733C57.4691 12.3097 58.2545 11.5635 59.6291 11.5635C61.0036 11.5635 61.7891 12.3097 61.7891 14.2733V15.4122H65.8734V14.5482C65.8734 10.1497 63.7134 7.63623 59.5113 7.63623C55.3091 7.63623 53.1491 10.1497 53.1491 14.5482Z" fill="#15003E"/>
<path d="M72.1644 35.4413H76.4844V26.33L81.9433 7.95041H77.8197L74.5208 20.4784L71.2219 7.95041H66.7055L72.1644 26.33V35.4413Z" fill="#15003E"/>
<path d="M89.6598 7.95041H83.6511V35.4413H87.4213V16.0013L90.6416 35.4413H94.726L97.7107 15.7264V35.4413H101.795V7.95041H95.7864L92.8409 27.469L89.6598 7.95041Z" fill="#15003E"/>
<path d="M103.681 11.8777H108.197V35.4413H112.517V11.8777H117.034V7.95041H103.681V11.8777Z" fill="#15003E"/>
<path d="M132.367 35.4413C131.935 34.4202 131.896 33.4384 131.896 32.1031V27.8617C131.896 24.9948 131.189 22.9133 129.029 22.01C130.954 21.1068 131.857 19.261 131.857 16.4333V14.2733C131.857 10.0319 129.932 7.95041 125.455 7.95041H118.936V35.4413H123.256V24.2486H124.748C126.712 24.2486 127.576 25.1911 127.576 27.7439V32.0639C127.576 34.3024 127.733 34.7344 127.969 35.4413H132.367ZM125.338 11.8777C126.869 11.8777 127.537 12.7417 127.537 14.7053V17.4151C127.537 19.6144 126.555 20.3213 124.945 20.3213H123.256V11.8777H125.338Z" fill="#15003E"/>
<path d="M134.737 35.4413H139.057V7.95041H134.737V35.4413Z" fill="#15003E"/>
<path d="M150.66 25.1911V29.1184C150.66 31.082 149.796 31.789 148.421 31.789C147.046 31.789 146.182 31.082 146.182 29.1184V14.2733C146.182 12.3097 147.046 11.5635 148.421 11.5635C149.796 11.5635 150.66 12.3097 150.66 14.2733V17.2188H154.744V14.5482C154.744 10.1497 152.545 7.63623 148.303 7.63623C144.062 7.63623 141.862 10.1497 141.862 14.5482V28.8435C141.862 33.2421 144.062 35.7555 148.303 35.7555C152.545 35.7555 154.744 33.2421 154.744 28.8435V25.1911H150.66Z" fill="#15003E"/>
<g clip-path="url(#clip0_1275_2678)">
<path fill-rule="evenodd" clip-rule="evenodd" d="M15.5115 13.8349L13.1509 17.9161L10.9047 14.0199L13.2536 9.93873H29.6606L33.1442 3.89624H9.76695L5.16022 11.8868C8.61601 17.8569 12.0665 23.827 15.5115 29.7971H22.4789C20.7289 26.768 18.98 23.7394 17.232 20.7113L16.7476 19.873H32.7156L39.5831 31.7642L32.7156 43.6364H7.52086L0.723809 31.6498L4.13703 25.7218L6.39781 29.6165L5.17492 31.7496L9.78164 39.7402H30.4562L35.0776 31.7496L30.4709 23.759H23.5036C24.9814 26.333 26.4602 28.9064 27.94 31.4794L28.1073 31.7452L26.9843 33.6933H13.2653C9.1127 26.5126 4.96545 19.3372 0.823591 12.1672L0.667969 11.8824L7.52086 -0.00878906H39.909L31.9243 13.8349H15.5115Z" fill="#7F46F0"/>
</g>
<defs>
<clipPath id="clip0_1275_2678">
<rect width="39.2425" height="43.6364" fill="white" transform="translate(0.667969)"/>
</clipPath>
</defs>
</svg>
