<svg width="183" height="48" viewBox="0 0 183 48" fill="none" xmlns="http://www.w3.org/2000/svg">
<g clip-path="url(#clip0_1275_2680)">
<path fill-rule="evenodd" clip-rule="evenodd" d="M26.707 47.0855C31.9019 46.479 36.7401 44.1371 40.4384 40.4388C44.1367 36.7406 46.4785 31.9024 47.085 26.7075H38.3543C37.8036 29.5906 36.3983 32.2413 34.3211 34.3151C32.244 36.3889 29.591 37.7899 26.707 38.3359V47.0855Z" fill="#F7936F"/>
<path fill-rule="evenodd" clip-rule="evenodd" d="M34.4658 3.24608L34.5207 3.21011C40.1701 -0.0359779 44.7381 -0.990521 46.8649 1.13818C52.8818 7.1531 35.9146 25.8626 30.8882 30.8889C27.8655 33.9205 24.6622 36.7665 21.2958 39.4113V47.0796C18.5894 46.7723 15.9597 45.9834 13.531 44.7501L13.4761 44.7861C7.82666 48.0322 3.26061 48.9867 1.13191 46.8693C-1.78465 43.9528 1.62803 37.239 3.2416 34.4683C2.01597 32.0366 1.22752 29.4083 0.912188 26.7035H9.66179C10.0444 28.7342 10.8537 30.6607 12.0362 32.3554C13.2187 34.0501 14.7475 35.4746 16.5214 36.5345C15.512 37.2675 14.4855 37.9644 13.4211 38.6178C11.8625 39.6083 10.2489 40.5438 8.57855 41.3866C7.27126 40.2289 6.10197 38.9243 5.09386 37.4985C3.33256 40.8923 2.74547 43.3865 3.68104 44.3164C7.69793 48.2935 25.7654 31.6976 28.7368 28.7261C31.9004 25.5667 34.8595 22.2091 37.5963 18.6735C36.6945 16.3688 35.2214 14.3313 33.3154 12.7527C31.4094 11.174 29.1333 10.1061 26.7009 9.64925V0.899554C29.408 1.20412 32.0381 1.99317 34.4658 3.22902V3.24608ZM42.9029 10.492C44.6642 7.0982 45.2513 4.60398 44.3157 3.67409C43.3801 2.74421 40.9068 3.34457 37.5111 5.10587C39.5987 6.58735 41.4214 8.41016 42.9029 10.4977V10.492Z" fill="#F16063"/>
<path fill-rule="evenodd" clip-rule="evenodd" d="M21.2999 0.916504C16.1049 1.5234 11.2667 3.86572 7.56843 7.56431C3.87019 11.2629 1.52829 16.1013 0.921875 21.2964H9.67157C10.2148 18.413 11.6152 15.7605 13.6897 13.6856C15.7643 11.6107 18.4166 10.2099 21.2999 9.66615V0.916504Z" fill="#F7936F"/>
</g>
<path d="M87.6136 29.5566C87.6136 30.568 87.4205 31.5225 87.0341 32.4202C86.6591 33.3066 86.1364 34.085 85.4659 34.7555C84.8068 35.4146 84.0284 35.9373 83.1307 36.3236C82.2443 36.6986 81.2955 36.8861 80.2841 36.8861C79.375 36.8861 78.5 36.7271 77.6591 36.4089C76.8295 36.0907 76.0795 35.6248 75.4091 35.0111C74.7386 35.6248 73.983 36.0907 73.142 36.4089C72.3011 36.7271 71.4261 36.8861 70.517 36.8861C69.5057 36.8861 68.5511 36.6986 67.6534 36.3236C66.767 35.9373 65.9886 35.4146 65.3182 34.7555C64.6591 34.085 64.1364 33.3066 63.75 32.4202C63.375 31.5225 63.1875 30.568 63.1875 29.5566V12.1021H68.0795V29.5566C68.0795 29.8975 68.142 30.2214 68.267 30.5282C68.392 30.8236 68.5625 31.085 68.7784 31.3123C69.0057 31.5282 69.267 31.6986 69.5625 31.8236C69.858 31.9486 70.1761 32.0111 70.517 32.0111C70.858 32.0111 71.1761 31.9486 71.4716 31.8236C71.767 31.6986 72.0227 31.5282 72.2386 31.3123C72.4659 31.085 72.642 30.8236 72.767 30.5282C72.892 30.2214 72.9545 29.8975 72.9545 29.5566V12.1021H77.8466V29.5566C77.8466 29.8975 77.9091 30.2214 78.0341 30.5282C78.1591 30.8236 78.3295 31.085 78.5455 31.3123C78.7727 31.5282 79.0341 31.6986 79.3295 31.8236C79.625 31.9486 79.9432 32.0111 80.2841 32.0111C80.625 32.0111 80.9432 31.9486 81.2386 31.8236C81.5341 31.6986 81.7898 31.5282 82.0057 31.3123C82.233 31.085 82.4091 30.8236 82.5341 30.5282C82.6705 30.2214 82.7386 29.8975 82.7386 29.5566V12.1021H87.6136V29.5566Z" fill="#16192C"/>
<path d="M96.9886 13.3293C96.9886 13.7611 96.9034 14.1646 96.733 14.5396C96.5739 14.9146 96.3523 15.2441 96.0682 15.5282C95.7841 15.8009 95.4489 16.0225 95.0625 16.193C94.6875 16.3521 94.2841 16.4316 93.8523 16.4316C93.4205 16.4316 93.0114 16.3521 92.625 16.193C92.25 16.0225 91.9205 15.8009 91.6364 15.5282C91.3636 15.2441 91.142 14.9146 90.9716 14.5396C90.8125 14.1646 90.733 13.7611 90.733 13.3293C90.733 12.9089 90.8125 12.5111 90.9716 12.1361C91.142 11.7498 91.3636 11.4202 91.6364 11.1475C91.9205 10.8634 92.25 10.6418 92.625 10.4827C93.0114 10.3123 93.4205 10.2271 93.8523 10.2271C94.2841 10.2271 94.6875 10.3123 95.0625 10.4827C95.4489 10.6418 95.7841 10.8634 96.0682 11.1475C96.3523 11.4202 96.5739 11.7498 96.733 12.1361C96.9034 12.5111 96.9886 12.9089 96.9886 13.3293ZM96.1875 36.5452H91.5V18.2896H96.1875V36.5452Z" fill="#16192C"/>
<path d="M109.773 36.5452H99.1364V31.9089H109.773C110.091 31.9089 110.364 31.7952 110.591 31.568C110.818 31.3407 110.932 31.068 110.932 30.7498C110.932 30.4202 110.818 30.2043 110.591 30.1021C110.364 29.9998 110.091 29.9486 109.773 29.9486H104.932C104.125 29.9486 103.369 29.7952 102.665 29.4884C101.96 29.1816 101.347 28.7668 100.824 28.2441C100.301 27.71 99.8864 27.0907 99.5795 26.3861C99.2841 25.6816 99.1364 24.9259 99.1364 24.1191C99.1364 23.3123 99.2841 22.5566 99.5795 21.8521C99.8864 21.1475 100.301 20.5339 100.824 20.0111C101.347 19.4884 101.96 19.0793 102.665 18.7839C103.369 18.4771 104.125 18.3236 104.932 18.3236H114.358V22.96H104.932C104.614 22.96 104.341 23.0736 104.114 23.3009C103.886 23.5282 103.773 23.8009 103.773 24.1191C103.773 24.4486 103.886 24.7327 104.114 24.9714C104.341 25.1986 104.614 25.3123 104.932 25.3123H109.773C110.568 25.3123 111.318 25.4486 112.023 25.7214C112.727 25.9827 113.341 26.3521 113.864 26.8293C114.386 27.3066 114.801 27.8805 115.108 28.5509C115.415 29.2214 115.568 29.9543 115.568 30.7498C115.568 31.5566 115.415 32.3123 115.108 33.0168C114.801 33.71 114.386 34.3236 113.864 34.8577C113.341 35.3805 112.727 35.7952 112.023 36.1021C111.318 36.3975 110.568 36.5452 109.773 36.5452Z" fill="#16192C"/>
<path d="M122.71 36.5452H118.057V11.0282H122.71V19.0907C123.267 18.6702 123.841 18.3748 124.432 18.2043C125.023 18.0225 125.625 17.9316 126.239 17.9316C127.364 17.9316 128.42 18.1475 129.409 18.5793C130.398 18.9998 131.256 19.585 131.983 20.335C132.722 21.0736 133.301 21.943 133.722 22.943C134.153 23.9316 134.369 24.9884 134.369 26.1134V36.5452H129.682V26.1134H129.716C129.716 25.6361 129.625 25.1873 129.443 24.7668C129.261 24.335 129.011 23.96 128.693 23.6418C128.375 23.3236 128.006 23.0736 127.585 22.8918C127.165 22.71 126.716 22.6191 126.239 22.6191C125.75 22.6191 125.29 22.71 124.858 22.8918C124.426 23.0736 124.051 23.3236 123.733 23.6418C123.415 23.96 123.165 24.335 122.983 24.7668C122.801 25.1873 122.71 25.6361 122.71 26.1134V36.5452Z" fill="#16192C"/>
<path d="M144.955 32.0793C145.136 32.1361 145.318 32.1759 145.5 32.1986C145.682 32.21 145.864 32.2157 146.045 32.2157C146.5 32.2157 146.938 32.1532 147.358 32.0282C147.778 31.9032 148.17 31.7271 148.534 31.4998C148.909 31.2611 149.239 30.9771 149.523 30.6475C149.818 30.3066 150.057 29.9316 150.239 29.5225L153.648 32.9486C153.216 33.5623 152.716 34.1134 152.148 34.6021C151.591 35.0907 150.983 35.5055 150.324 35.8464C149.676 36.1873 148.989 36.443 148.261 36.6134C147.545 36.7952 146.807 36.8861 146.045 36.8861C144.761 36.8861 143.551 36.6475 142.415 36.1702C141.29 35.693 140.301 35.0282 139.449 34.1759C138.608 33.3236 137.943 32.3123 137.455 31.1418C136.966 29.96 136.722 28.6646 136.722 27.2555C136.722 25.8123 136.966 24.4941 137.455 23.3009C137.943 22.1077 138.608 21.0907 139.449 20.2498C140.301 19.4089 141.29 18.7555 142.415 18.2896C143.551 17.8236 144.761 17.5907 146.045 17.5907C146.807 17.5907 147.551 17.6816 148.278 17.8634C149.006 18.0452 149.693 18.3066 150.341 18.6475C151 18.9884 151.614 19.4089 152.182 19.9089C152.75 20.3975 153.25 20.9486 153.682 21.5623L144.955 32.0793ZM147.341 22.4827C147.125 22.4032 146.909 22.3521 146.693 22.3293C146.489 22.3066 146.273 22.2952 146.045 22.2952C145.409 22.2952 144.807 22.4146 144.239 22.6532C143.682 22.8805 143.193 23.21 142.773 23.6418C142.364 24.0736 142.04 24.5964 141.801 25.21C141.562 25.8123 141.443 26.4941 141.443 27.2555C141.443 27.4259 141.449 27.6191 141.46 27.835C141.483 28.0509 141.511 28.2725 141.545 28.4998C141.591 28.7157 141.642 28.9259 141.699 29.1305C141.756 29.335 141.83 29.5168 141.92 29.6759L147.341 22.4827Z" fill="#16192C"/>
<path d="M160.722 36.5452H156.034V11.0282H160.722V36.5452Z" fill="#16192C"/>
<path d="M168.972 43.4998H164.284V18.2896H165.409L167.267 20.4884C167.688 20.0907 168.148 19.7157 168.648 19.3634C169.148 19.0111 169.665 18.71 170.199 18.46C170.744 18.1986 171.307 17.9941 171.886 17.8464C172.466 17.6986 173.051 17.6248 173.642 17.6248C174.926 17.6248 176.131 17.8577 177.256 18.3236C178.392 18.7782 179.381 19.4259 180.222 20.2668C181.074 21.1077 181.744 22.1248 182.233 23.318C182.722 24.4998 182.966 25.8123 182.966 27.2555C182.966 28.7555 182.722 30.1077 182.233 31.3123C181.744 32.5055 181.074 33.5225 180.222 34.3634C179.381 35.193 178.392 35.8293 177.256 36.2725C176.131 36.7157 174.926 36.9373 173.642 36.9373C173.233 36.9373 172.824 36.8918 172.415 36.8009C172.017 36.71 171.619 36.5907 171.222 36.443C170.835 36.2839 170.449 36.1077 170.062 35.9146C169.688 35.7214 169.324 35.5225 168.972 35.318V43.4998ZM178.295 27.2555C178.295 26.4827 178.17 25.7896 177.92 25.1759C177.682 24.5623 177.352 24.0452 176.932 23.6248C176.511 23.193 176.017 22.8634 175.449 22.6361C174.881 22.4089 174.278 22.2952 173.642 22.2952C173.006 22.2952 172.403 22.4089 171.835 22.6361C171.278 22.8634 170.79 23.193 170.369 23.6248C169.949 24.0452 169.614 24.5623 169.364 25.1759C169.125 25.7896 169.006 26.4827 169.006 27.2555C169.006 27.9941 169.125 28.6702 169.364 29.2839C169.614 29.8975 169.949 30.4202 170.369 30.8521C170.79 31.2839 171.278 31.6191 171.835 31.8577C172.403 32.0964 173.006 32.2157 173.642 32.2157C174.278 32.2157 174.881 32.0964 175.449 31.8577C176.017 31.6191 176.511 31.2839 176.932 30.8521C177.352 30.4202 177.682 29.8975 177.92 29.2839C178.17 28.6702 178.295 27.9941 178.295 27.2555Z" fill="#16192C"/>
<defs>
<clipPath id="clip0_1275_2680">
<rect width="48.142" height="48" fill="white"/>
</clipPath>
</defs>
</svg>
